<?xml version="1.0" encoding="utf-8"?><svg xmlns="http://www.w3.org/2000/svg" xmlns:xlink="http://www.w3.org/1999/xlink"><symbol viewBox="0 0 17 23" id="icon-address" xmlns="http://www.w3.org/2000/svg"><path d="M8.5 0C13.194 0 17 3.652 17 8.16 17 12.669 8.5 23 8.5 23S0 12.668 0 8.16C0 3.654 3.805 0 8.5 0zM6.969 8.171c0 .82.685 1.484 1.531 1.484.846 0 1.531-.665 1.531-1.484 0-.82-.685-1.485-1.531-1.485-.846 0-1.531.665-1.531 1.485z"/></symbol><symbol viewBox="0 0 32 50" id="icon-slide-next" xmlns="http://www.w3.org/2000/svg"><path d="M.762 3.294L2.972.605l29.027 23.931-.494.602.483.6L3.193 50.007 1 47.28l26.264-22.136z"/></symbol><symbol viewBox="0 0 32 50" id="icon-slide-next-hov" xmlns="http://www.w3.org/2000/svg"><path d="M.762 3.294L2.972.605l29.027 23.931-.494.602.483.6L3.193 50.007 1 47.28l26.264-22.136z"/></symbol><symbol viewBox="0 0 31 49" id="icon-slide-prev" xmlns="http://www.w3.org/2000/svg"><path d="M0 23.746L28.797.011l2.192 2.667-26.29 21.67L30.75 46.302l-2.174 2.705L.012 24.937l.479-.595z"/></symbol><symbol viewBox="0 0 31 49" id="icon-slide-prev-hov" xmlns="http://www.w3.org/2000/svg"><path d="M0 23.746L28.797.011l2.192 2.667-26.29 21.67L30.75 46.302l-2.174 2.705L.012 24.937l.479-.595z"/></symbol><symbol viewBox="0 0 15 23" id="icon-tel" xmlns="http://www.w3.org/2000/svg"><path d="M3 0h9a3 3 0 0 1 3 3v17a3 3 0 0 1-3 3H3a3 3 0 0 1-3-3V3a3 3 0 0 1 3-3zm0 18h9V4H3zm3 2c0 .552.672 1 1.5 1S9 20.552 9 20c0-.553-.672-1-1.5-1S6 19.447 6 20z"/></symbol></svg>