<svg xmlns="http://www.w3.org/2000/svg" fill="none" viewBox="-0.17 0 512.25 512">
<g clip-path="url(#clip0_1_15)">
<path d="M222 38C187.5 46.9 159.4 80.4 153.8 119.3C152.7 127.5 152.4 128.1 150.5 127.5C149.4 127.1 142.9 126.6 136 126.3C120.8 125.7 113.3 127.2 101 133.2C94.1 136.6 90.8 139.1 83.5 146.5C68.7 161.2 63 175.3 63.1 196.5C63.1 203.8 63.7 209.8 65 214.5C66 218.3 66.7 221.6 66.6 221.6C66.6 221.7 62.5 223.7 57.6 226C29.1 239.8 7.5 267.2 1.5 296.9C-1.1 309.7 -0.200003 330.6 3.5 342C9 359.3 18.6 374.5 31.9 387.4L39 394.2L36.3 400.9C34.1 406.4 33.5 409.4 33.2 418.7C32.7 431.8 34.6 439.6 40.5 449.4C42.4 452.6 44 455.4 44 455.6C44 455.8 35.3 456 24.6 456H5.3L2.6 458.6C-1.1 462.4 -1.1 469.6 2.6 473.4L5.3 476H256H506.7L509.4 473.4C511.5 471.3 512 469.8 512 466C512 462.2 511.5 460.7 509.4 458.6L506.7 456H487.4C476.7 456 468 455.8 468 455.6C468 455.4 469.6 452.6 471.5 449.4C476.9 440.5 479 432.5 479 421.1C479 406.2 474.7 394.4 465.5 384.2C462.9 381.3 460.9 378.8 461.1 378.6C461.3 378.5 464.2 376.9 467.5 375C488.7 363.3 504.1 343.6 510 320.6C512.7 309.9 512.8 292.3 510.1 281.8C503.1 254.5 482.3 231.6 455.3 221.4L446.8 218.3L443.6 210.4C435.3 189.6 416.7 171.2 395.6 162.6C392.3 161.3 388.7 159.9 387.8 159.6C386.3 159.1 386 157.7 386 149.8C385.9 125.4 370.1 104.7 346.1 97.6C342.6 96.6 336.9 96 330.1 96H319.5L317.1 90C309.3 70.5 290.4 50.4 272.2 42.3C257.4 35.8 237.4 34.1 222 38ZM258.8 59.8C266.9 62.9 272.9 66.8 279.9 73.4C290.1 83.2 296.4 93.5 301.4 108.8C303.7 115.5 304.7 117.3 307 118.5C310.7 120.4 314.6 120.4 320 118.5C326.3 116.3 336.8 116.6 343.7 119.2C355.8 123.7 365 137 365 149.9V155.7L354.3 156.3C319.8 158 289.9 181.9 279 216.5C277.6 221.1 276.6 227.2 276.3 234.5C275.8 245.5 275.8 245.5 278.5 248.2C280.7 250.5 282.2 251 285.9 251C293.7 250.9 295.7 248.2 297 235.9C297.5 230.7 298.9 223.8 300 220.5C306.8 200.6 325.2 183.7 345.5 178.5C358 175.3 376 177 388.7 182.5C406.8 190.5 422 208 426.5 226.2C428.6 234.4 430.6 236.3 439 238.4C463.8 244.7 483.6 263.7 489.6 287.1C491.8 295.8 491.1 312 488 320.8C485.2 328.8 477.7 340.2 471.3 346.1C458.3 358.3 445.7 363.6 425.8 365.5C417 366.3 414 369 414 376C414 382.6 417.1 385.6 424.8 386.5C440.5 388.3 451.8 396.6 456.5 409.9C458.7 416.2 458.4 426.7 455.9 433.6C453 441.3 444.4 449.9 436.4 453.1C430.5 455.4 430.2 455.5 381.3 455.8C354.2 456 332 455.8 332 455.3C332 454.9 343.8 425.1 358.1 389.2L384.3 323.9L413.1 309.5C428.9 301.5 442.8 294.1 443.9 292.8C447.1 289.4 446.8 282.1 443.4 278.6C438.4 273.6 434.9 274.5 409 287.5L386 299V275.1V251.3L383.4 248.6C381.3 246.5 379.8 246 376 246C372.2 246 370.7 246.5 368.6 248.6L366 251.3V281.9V312.5L360.8 325.7C357.9 333 355.3 339 355 339C354.7 339 348 325.9 340 309.9C332 293.9 324.4 279.7 323.1 278.4C319.6 274.9 312.3 275 308.6 278.6C303.3 284 303.9 285.9 325.2 328.3L344.3 366.7L326.5 411.3L308.6 456H287.3H266V436.1V416.3L263.4 413.6C259.6 409.9 252.4 409.9 248.6 413.6L246 416.3V436.1V456H225.2H204.5L190.2 398.7L175.9 341.5L176 311.4V281.3L173.4 278.6C169.6 274.9 162.4 274.9 158.6 278.6L156 281.3V305.1V329L133 317.5C107.1 304.5 103.6 303.6 98.6 308.6C95 312.3 94.9 319.6 98.4 323.1C99.7 324.4 113.4 331.8 128.8 339.4L156.8 353.4L169.4 403.7C176.3 431.4 182 454.4 182 455C182 456.3 93.1 456.3 84.2 455.1C75.7 453.8 69.5 450.6 63.3 444.4C51.2 431.9 50.6 411.7 62.1 398.6C68.6 391.3 75.7 387.8 87.2 386.5C94.9 385.6 98 382.6 98 376C98 372.2 97.5 370.7 95.4 368.6C93 366.3 92 366 85.5 366C76.7 366 67.7 368.6 59.6 373.5C56.1 375.6 53 376.8 51.9 376.5C49.4 375.7 38.2 363.5 33.7 356.7C24.9 343.5 21 330.7 21 315.4C21 303.7 22.8 295.5 27.4 285.5C44.4 248.8 84.4 229.5 123.2 239.4C137.7 243.1 143 240.7 143 230.6C143 226.9 142.5 225.8 140 223.7C134.1 218.7 118.7 215.8 100.7 216.2L88 216.5L86.2 212C84.9 208.6 84.5 204.5 84.5 195.5C84.5 183.7 84.6 183.4 88.2 175.7C100.3 150.5 128.6 140 153.9 151.5C163 155.6 164.3 155.7 168.8 153C173.2 150.3 174 147.6 174 135.5C174 111.7 182.3 91.5 198.5 75.5C206.4 67.7 213.6 63 222.5 59.9C234 55.9 248.3 55.9 258.8 59.8Z" fill="white"/>
<path d="M248.6 128.6L246 131.3V161.6V191.9L232.8 212.9L219.5 233.9L195.4 210L171.3 186H166.3C159.2 186 156 189.2 156 196.3V201.4L201 246.5L246 291.5V313.6V335.7L248.6 338.4C250.7 340.5 252.2 341 256 341C259.8 341 261.3 340.5 263.4 338.4L266 335.7V308.2V280.8L250.5 265L234.9 249.3L250.5 224.7L266 200.1V165.7V131.3L263.4 128.6C261.3 126.5 259.8 126 256 126C252.2 126 250.7 126.5 248.6 128.6Z" fill="white"/>
<path d="M248.6 368.6C246.5 370.7 246 372.2 246 376C246 379.8 246.5 381.3 248.6 383.4C250.7 385.5 252.2 386 256 386C259.8 386 261.3 385.5 263.4 383.4C265.5 381.3 266 379.8 266 376C266 372.2 265.5 370.7 263.4 368.6C261.3 366.5 259.8 366 256 366C252.2 366 250.7 366.5 248.6 368.6Z" fill="white"/>
</g>
<defs>
<clipPath id="clip0_1_15">
<rect width="512" height="512" fill="white"/>
</clipPath>
</defs>
</svg>