<svg xmlns="http://www.w3.org/2000/svg" data-name="Layer 1" id="Layer_1" viewBox="2 2 60 60"><title/><path d="M61,54a1,1,0,0,0,0-2H57V41.407c2.609-2.586,4-5.482,4-8.407,0-3.044-1.492-6.061-4.312-8.726a1.012,1.012,0,0,0-1.376,0C52.492,26.939,51,29.956,51,33c0,2.925,1.391,5.821,4,8.407V52H42V49.407c2.609-2.586,4-5.482,4-8.407,0-3.044-1.492-6.061-4.312-8.726a1.012,1.012,0,0,0-1.376,0C37.492,34.939,36,37.956,36,41c0,2.925,1.391,5.821,4,8.407V52H28V41.407c2.609-2.586,4-5.482,4-8.407,0-3.044-1.492-6.061-4.312-8.726a1.012,1.012,0,0,0-1.376,0C23.492,26.939,22,29.956,22,33c0,2.925,1.391,5.821,4,8.407V52H19V49.344a8.18,8.18,0,0,0-.235-10.988,1,1,0,0,0-1.53,0A8.18,8.18,0,0,0,17,49.344V52H9V45.407c2.609-2.586,4-5.482,4-8.407,0-3.044-1.492-6.061-4.312-8.726a1.012,1.012,0,0,0-1.376,0C4.492,30.939,3,33.956,3,37c0,2.925,1.391,5.821,4,8.407V52H3a1,1,0,0,0,0,2H7v2H3a1,1,0,0,0,0,2H7v2H3a1,1,0,0,0,0,2H61a1,1,0,0,0,0-2H42V58H61a1,1,0,0,0,0-2H42V54ZM53,33a9.749,9.749,0,0,1,3-6.586A9.749,9.749,0,0,1,59,33a9.014,9.014,0,0,1-2,5.386V34a1,1,0,0,0-2,0v4.386A9.014,9.014,0,0,1,53,33ZM24,33a9.749,9.749,0,0,1,3-6.586A9.749,9.749,0,0,1,30,33a9.014,9.014,0,0,1-2,5.386V34a1,1,0,0,0-2,0v4.386A9.014,9.014,0,0,1,24,33Zm-6,7.691a6,6,0,0,1,0,6.618A6,6,0,0,1,18,40.691ZM17,54v2H9V54ZM8,35a1,1,0,0,0-1,1v6.386A9.014,9.014,0,0,1,5,37a9.749,9.749,0,0,1,3-6.586A9.749,9.749,0,0,1,11,37a9.014,9.014,0,0,1-2,5.386V36A1,1,0,0,0,8,35ZM40,60H9V58H40Zm0-4H19V54H40Zm1-15a1,1,0,0,0-1,1v4.386A9.014,9.014,0,0,1,38,41a9.749,9.749,0,0,1,3-6.586A9.749,9.749,0,0,1,44,41a9.014,9.014,0,0,1-2,5.386V42A1,1,0,0,0,41,41Z"/><path d="M41,22a7,7,0,1,0-7-7A7.008,7.008,0,0,0,41,22Zm0-12a5,5,0,1,1-5,5A5.006,5.006,0,0,1,41,10Z"/><rect height="4" rx="1" width="2" x="40" y="2"/><rect height="4" rx="1" width="2" x="40" y="24"/><rect height="2" rx="1" width="4" x="50" y="14"/><rect height="2" rx="1" width="4" x="28" y="14"/><path d="M48.778,8.636l1.415-1.414a1,1,0,0,0-1.415-1.414L47.364,7.222a1,1,0,0,0,1.414,1.414Z"/><path d="M33.222,21.364l-1.415,1.414a1,1,0,0,0,1.415,1.414l1.414-1.414a1,1,0,1,0-1.414-1.414Z"/><path d="M48.778,21.364a1,1,0,1,0-1.414,1.414l1.414,1.414a1,1,0,0,0,1.415-1.414Z"/><path d="M33.222,8.636a1,1,0,1,0,1.414-1.414L33.222,5.808a1,1,0,0,0-1.415,1.414Z"/></svg>