<svg xmlns="http://www.w3.org/2000/svg" fill="none" viewBox="0 71.51 511.5 368.94">
<path d="M464 72.1C451 74.3 458.2 67.6 315.7 209.9L184 341.5L123.7 281.4C67.9 225.7 63 221.1 57.2 218.6C38.9 210.6 17.4 216.9 6.5 233.4C1.9 240.2 0 246.9 0 256C0 264.8 1.9 271.5 6 277.9C7.6 280.4 43 316.6 84.7 358.2C167.5 440.9 163.8 437.7 178 439.9C186.4 441.3 194.2 440 202.9 436C209.1 433.1 217.8 424.6 357.2 285.2C499.1 143.3 505 137.2 508.2 130.5C511.3 123.9 511.5 122.9 511.5 112.5C511.5 102.3 511.3 101 508.4 95C500.5 78.3 482.5 69 464 72.1Z" fill="white"/>
</svg>