<svg xmlns="http://www.w3.org/2000/svg" fill="none" viewBox="0 0 512 512">
    <path d="M44.5 3.09999C21.6 5.79999 3.9 24.6 2.3 48C1.6 57.4 3.2 65.1 7.5 73.8C10.6 79.9 18.6 88.2 98.5 168L186 255.5L97.6 344C5 436.8 5.2 436.6 1.6 448.9C-0.600003 456.5 -0.500003 470.2 1.9 477.9C6.6 493 17.6 503.6 32.7 507.5C39.9 509.4 56.8 509.4 63.6 507.6C76.4 504.2 75.1 505.4 168 412.5L255.5 325L343.5 412.9C436.4 505.7 434.2 503.7 447.1 507.4C454.8 509.7 471.1 509.7 478.7 507.5C499 501.7 512 484 512 462.1C512 451.3 509.5 442.5 504.4 434.8C502.4 431.9 461.4 390.3 413.2 342.3L325.5 255.2L413.1 167.3C496 84.2 500.8 79.2 503.5 73C511.8 54 507.8 31.9 493.6 18C482.6 7.19999 472.8 3.49999 456.7 4.19999C444.5 4.79999 437.8 7.09999 429.3 13.5C426.1 15.9 385.7 55.7 339.6 101.9L255.6 185.9L168.3 99C106.3 37.3 79.5 11.3 75.7 9.19999C66.5 3.89999 55.6 1.79999 44.5 3.09999Z" fill="currentColor"/>
</svg>