<svg xmlns="http://www.w3.org/2000/svg" fill="none" viewBox="0 0 512.09 512">
<g clip-path="url(#clip0_1_27)">
<path d="M372 8.59997C358.8 12.1 346.8 21.2 339.8 33.1C335.5 40.3 335 44.6 338.1 47.9C339.7 49.6 341.1 50 344.3 49.8C348.1 49.5 348.8 49.1 351.5 44.6C356.6 36.2 362.8 30.2 369.9 26.7C375.9 23.8 377.3 23.5 386 23.5C394.2 23.5 396.3 23.9 401.2 26.2C416.6 33.4 426.2 51.1 423 66.6C419.9 81.6 410 92.4 395.6 96.5C379.7 101.1 361.3 93.3 353.6 78.9C349.4 71.1 348.2 70 343.8 70C332 70 334 84 347.9 98C376.2 126.4 423.5 115.5 436.8 77.6C440.1 68.2 440.3 53.7 437.1 43.9C431.7 26.8 417 13.1 399.3 8.49997C392.1 6.59997 379.2 6.69997 372 8.59997Z" fill="white"/>
<path d="M122.1 60.1C91.6 65.5 66 90.4 60.2 120.4L58.5 128.9L54.4 129.9C52.1 130.5 46.1 133 41.1 135.6C33.4 139.4 31.6 140.8 30.4 143.6C28.2 148.9 31.4 154.9 36.5 155C37.6 155 42.6 153 47.5 150.5C52.5 148 59.9 145.1 64 144.1C68.1 143 72 141.4 72.7 140.5C73.3 139.5 74.2 136.2 74.5 133.1C75.6 123.1 77.1 117.6 81.3 109.1C96.6 77.7 137 65.7 166.8 83.7C184.5 94.4 197 115.1 197 133.4C197 139.3 199.7 142.6 205.3 143.5C217.9 145.6 233.8 155 242.1 165.3C253.4 179.5 258.4 199.3 254.9 216.2C253.4 223.8 245.9 238.7 240.5 244.7C234.1 252 222.6 259.4 212.7 262.6C205.9 264.8 202.7 265.2 193.8 265.2H183.1L176.8 270.7C173.3 273.7 168.3 277.4 165.5 279C160.7 281.7 148.4 286 145.4 286C144.2 286 144 279.1 144 243.2V200.5L162 182.5C179.5 165 180 164.4 180 160.4C180 155.2 177.7 153 172.4 153C168.8 153 167.8 153.8 156.3 165.2L144 177.5V159.3C144 141.6 143.9 141 141.6 138.4C138.5 134.7 132.6 134.5 129.9 137.9C128.1 140.1 128 142.7 128 182.8V225.4L116.2 213.7C105.6 203.3 103.9 202 100.8 202C96.3 202 93 205.4 93 210C93 213 94.8 215.2 110.5 231L128 248.6V267.4V286.3L124 285.6C114.6 284.1 102.8 278 92.8 269.3L88.1 265.2L78.3 265.3C60.3 265.3 46.7 259.7 34 247C21.4 234.5 16 221.4 16 203.9C16 194.2 17.2 188.5 20.9 179.2C24.4 170.5 21.7 165.6 13.9 166.2C9.7 166.5 9.3 166.8 6.7 171.7C1.6 181.2 -0.3 191.5 0.2 206.9C0.6 218.4 1.1 221.8 3.4 228.5C13.9 259.2 42.1 280.3 73.6 281.2C81.4 281.4 81.6 281.5 87.9 286.3C98.8 294.5 116.5 302 125.2 302H128V313.5V324.9L124.8 323.1C115.8 317.8 102.6 316.6 91.7 320C79.6 323.7 68.6 334.6 65.2 346.1C63.7 351.4 63.2 352 60.8 352C55 352 46.7 356.2 40.9 361.9C34 368.9 30.9 376.2 30.8 386.2V393L19.6 398.9C13.5 402.2 7.3 406.1 5.8 407.7C0.1 413.6 0 414.6 0 455C0 496.3 0.1 496.6 6.6 501.6L10.3 504.5L55.6 504.8C100 505.1 101 505 103 503C105.8 500.2 105.7 494 102.9 491.4C100.9 489.6 98.5 489.5 58.4 489.2L16 488.9L15.5 486.7C15.1 485.4 15 470.2 15.2 452.7C15.5 422.6 15.6 421 17.5 419.1C21.4 415.2 52.5 400.3 65.1 396.2C101.9 384.2 140.7 383.1 177.8 393C200.7 399.1 210.1 403.8 252.9 430.5C270.8 441.6 289.1 452.5 293.5 454.7C322 469.1 358.2 474.1 391.5 468.4C396.5 467.6 412.8 463.9 427.8 460.1L455 453.3V471.2V489H292.6H130.1L127.6 491.3C124 494.5 123.7 499.7 127 503C129 505 130.3 505 293.7 505H458.3L462.6 502.5C465.4 500.9 467.5 498.6 468.9 495.7C470.9 491.5 471 489.9 471 454.9C471 406.3 472.7 409.9 443 394.7C433.9 390.1 425 385.8 423.3 385.2L420 384.1V352.2V320.3L424 319.6C430.4 318.6 440 314.3 445.6 310.1C450 306.8 451.7 306.2 457.6 305.6C483.8 303 504.3 286.2 510.5 262.4C513 252.9 512.5 238.4 509.4 229.2C503.7 212.1 490.9 198.7 474.8 192.8C470 191.1 469 190.3 469 188.4C469 187.1 467.9 183.1 466.6 179.6C460.1 161.6 446.7 148.6 429 142.9C419 139.7 403.9 139.9 393.7 143.4C374.3 150 360.3 165 355.4 184.4C354.1 189.7 353.2 191.4 351.6 191.8C350.4 192.1 346.1 194.1 341.9 196.2C327.7 203.3 315.8 218.8 312.5 234.8C309.6 248.4 311 260.1 317.2 273C320.4 279.6 322.9 283.1 328.5 288.7C338.9 299 349.5 303.7 366.3 305.6C370.8 306.1 373.5 307.2 378.5 310.5C385.4 315.1 394.2 318.9 400.3 319.7L404 320.3V349.3V378.2L401.3 377.6C399.7 377.3 393.3 376 387.1 374.7L375.6 372.3L374.3 366.7C370.6 350.3 357.5 337.6 342.1 335.5L337.3 334.9L335.5 328.8C333.2 321 327 311.8 320.6 306.8C301.4 291.5 274.6 293.1 257.4 310.5L251.4 316.7L247.7 315.4C226.6 308.1 201.9 319.8 194 340.9C192.5 344.7 191.6 345.7 188.6 346.7C185.1 347.9 184.9 347.9 180.5 343.5C178 341.1 173.4 337.9 170.2 336.3C165.1 333.8 163.4 333.5 154.3 333.5H144V318V302.5L152.6 300.8C162.8 298.8 177.2 292.1 184.5 285.7C189.5 281.4 189.5 281.4 198 281.2C209.2 280.9 217.5 278.8 228.5 273.5C244.5 265.7 256.3 254.1 263.9 238.6C270 226.1 271.4 219.7 271.4 204C271.4 188.4 270.1 182.1 263.9 169.5C255 151.2 238.2 136.6 219 130.5C216 129.5 213.4 128.6 213.3 128.6C213.1 128.5 212.4 125 211.6 120.8C208.1 102.4 195.8 83.5 180.6 73.1C174.3 68.8 162.8 63.4 155.5 61.5C148.3 59.5 129.6 58.7 122.1 60.1ZM419.2 157.1C427.6 158.9 435 162.9 441.1 168.9C447.8 175.7 451.8 183.5 453.2 192.7C454.7 202.9 455.6 204.2 462.5 206.1C476.5 209.9 486.2 217.7 492.2 229.7C495.3 236.1 495.5 237 495.5 247.5C495.5 257.9 495.3 258.9 492.3 265.1C488.5 272.8 481.2 280.5 474.1 284.4C468 287.7 456 290.3 450.9 289.5C446.6 288.8 444.2 289.8 438.6 294.7C434.9 298.1 423.8 304 421.3 304C420.3 304 420 293.1 420 252.6C420 202.2 420 201.2 417.9 198.6C415.3 195.3 409.1 194.9 406 198C404.1 199.9 404 201.3 404 223.7V247.4L393.1 236.7C384.2 227.8 381.8 226 379.3 226C374.5 226 371.5 229 371.5 233.9C371.5 237.9 372.1 238.5 387.8 254.3L404 270.5V287.4V304.2L401.3 303.6C396.2 302.4 388.3 298 383.5 293.8C378.8 289.7 378.7 289.7 370.2 289.4C365.4 289.3 359.3 288.4 356.5 287.5C337 281 324.4 260.8 327.7 241.5C330.7 224.1 342.7 210.9 359.6 206.5C367.6 204.4 369 202.8 370.1 194.1C371.8 179.9 380.8 167.2 393.4 161C402.8 156.3 410.2 155.2 419.2 157.1ZM303.9 315.4C306.5 316.8 310.1 319.1 311.8 320.5C315.7 323.8 320.7 333.7 321.5 339.8C322.9 350.6 323.4 351 335 351.4C341.7 351.5 343.4 352 347.6 354.6C352.3 357.4 357 363.6 358.5 368.8C359.1 371 359.1 371 350.8 370.4C332 369 300 373.4 277.7 380.6C267.3 383.9 247.3 392.9 238.9 398L235.4 400.2L225.4 394.6C214.3 388.4 199.5 382.3 187.5 378.9C183.1 377.6 179.3 376.5 179.2 376.4C178.4 375.9 180.3 371.8 182.7 369C186.1 364.9 191.5 362.3 198 361.4C204.4 360.6 206.5 358.7 207.4 353.1C209.5 339.5 220.6 329.7 234.1 329.6C239.6 329.5 241.6 330 246.8 332.7C250.2 334.5 254 336 255.3 336C258.5 336 261.8 333.4 263.4 329.5C266.3 322.7 275.8 315.1 284.5 312.9C289.5 311.6 298.6 312.8 303.9 315.4ZM114 336.1C119 338.4 124.5 343.1 126.6 347.2C127.5 349 128 353.2 128 359.8V369.7L116.8 370.4C94.6 371.8 75.8 375.4 56.6 381.9C51.7 383.6 47.5 384.8 47.2 384.6C46.2 383.5 48.3 378.1 51 374.8C55.1 369.8 59.5 368 67.4 368C73.2 368 74.4 367.7 76.5 365.5C78.4 363.7 79 362 79 358.8C79 353.7 82.6 345.6 86.6 341.6C93.8 334.5 105.3 332.1 114 336.1ZM162.7 350.9C165 352 167.8 353.8 168.9 354.9L171 357L167.6 362.3C165.7 365.1 163.8 368.8 163.4 370.3C162.8 373 162.5 373.2 158.6 372.6C156.4 372.3 152.1 371.8 149.3 371.4L144 370.7V360.8C144 351.5 144.1 350.9 146.3 350C150.1 348.5 158.3 348.9 162.7 350.9ZM360.5 387C375.8 388.4 391.4 391.6 405.5 396.1C417.8 400.2 448.3 414.8 452.6 418.7C454.7 420.7 455 421.7 455 428.8V436.8L424.3 444.4C384.2 454.2 383.3 454.4 364 454.4C340.8 454.4 323.1 450.7 303.7 441.7C295.5 437.9 252 411.1 252 409.9C252 408.4 270.7 400 282.9 396C307.9 387.8 334.8 384.7 360.5 387Z" fill="white"/>
<path d="M254.5 98C251.9 100.9 252 106.5 254.8 109.3C256.8 111.2 258.1 111.5 266 111.5C273.9 111.5 275.2 111.2 277.2 109.3C280 106.5 280.1 100.9 277.5 98C275.9 96.3 274.5 96 266 96C257.5 96 256.1 96.3 254.5 98Z" fill="white"/>
<path d="M2 104C0.7 105.3 0 107.3 0 109.9C0 115.9 3.2 118 12.6 118C16.6 118 21 117.5 22.4 116.9C27.4 114.6 28.1 106.6 23.7 103.5C22.2 102.4 18.9 102 12.8 102C5.3 102 3.7 102.3 2 104Z" fill="white"/>
<path d="M298.9 148.9C297.1 150.3 296.5 151.8 296.5 154.9C296.5 161.2 298.4 162.4 308.8 162.8C316.5 163.1 317.8 162.9 320.3 161C323.8 158.2 324.1 152.1 320.8 149C317.7 146.1 302.4 146 298.9 148.9Z" fill="white"/>
</g>
<defs>
<clipPath id="clip0_1_27">
<rect width="512" height="512" fill="white"/>
</clipPath>
</defs>
</svg>