<svg xmlns="http://www.w3.org/2000/svg" fill="none" viewBox="8.25 3.5 62.79 84.5">
<path d="M31.9034 64.5631C30.7113 64.5631 29.7308 65.5437 29.7308 66.7357V83.1358C29.7308 84.3278 30.7113 85.3083 31.9034 85.3083C33.0954 85.3083 34.0759 84.3278 34.0759 83.1358V66.7357C34.0759 65.5437 33.0954 64.5631 31.9034 64.5631Z" fill="#182219"/>
<path d="M31.4419 5L9.75464 69.4658H53.1292L31.4419 5Z" fill="#87B436" stroke="#182219" stroke-width="3" stroke-miterlimit="10"/>
<path d="M51.1874 69.5812L50.9374 69.8312C50.5721 70.1965 49.9569 70.1965 49.5916 69.8312L20.0215 40.2611C19.6562 39.8958 19.6562 39.2805 20.0215 38.9152L20.2714 38.6653C20.6367 38.3 21.252 38.3 21.6173 38.6653L51.1874 68.2354C51.5527 68.6007 51.5527 69.2159 51.1874 69.5812Z" fill="#182219"/>
<path d="M20.6944 39.2036L20.9444 39.4536C21.3097 39.8189 21.9249 39.8189 22.2902 39.4536L37.7482 23.9956C38.1135 23.6303 38.1135 23.0151 37.7482 22.6498L37.4982 22.3998C37.1329 22.0345 36.5177 22.0345 36.1524 22.3998L20.6944 37.8578C20.3291 38.2231 20.3291 38.8383 20.6944 39.2036Z" fill="#182219"/>
<path d="M54.8404 73.5995C53.6676 73.5995 52.7255 74.5415 52.7255 75.7144V85.8851C52.7255 87.0579 53.6676 88 54.8404 88C55.9939 88 56.9553 87.0579 56.9553 85.8851V75.7144C56.9553 74.5415 55.9939 73.5995 54.8404 73.5995Z" fill="#182219"/>
<path d="M54.5135 32.2437L39.4593 77.0025H69.5485L54.5135 32.2437Z" fill="#9ACC4E" stroke="#182219" stroke-width="3" stroke-miterlimit="10"/>
<path d="M40.4398 76.5219L40.959 77.041C41.2666 77.3486 41.7665 77.3486 42.0741 77.041L62.4155 56.6995C62.7231 56.3919 62.7231 55.892 62.4155 55.5844L61.8964 55.0653C61.5888 54.7577 61.0889 54.7577 60.7813 55.0653L40.4398 75.4067C40.1322 75.7144 40.1322 76.2142 40.4398 76.5219Z" fill="#182219"/>
</svg>