<svg xmlns="http://www.w3.org/2000/svg" fill="none" viewBox="0 0 88 88">
<g clip-path="url(#clip0_1_56)">
<path d="M29.7178 87.7014C40.6377 87.7014 49.49 86.9911 49.49 86.115C49.49 85.2388 40.6377 84.5286 29.7178 84.5286C18.7979 84.5286 9.94556 85.2388 9.94556 86.115C9.94556 86.9911 18.7979 87.7014 29.7178 87.7014Z" fill="#B3B3B3"/>
<path d="M18.0051 84.2871H41.9727" stroke="#182219" stroke-width="2.65069" stroke-linecap="round" stroke-linejoin="round"/>
<path d="M21.7764 46.0679C21.7764 46.0679 20.6792 59.8693 34.7191 57.1435" stroke="#182219" stroke-width="3.05727" stroke-linecap="round" stroke-linejoin="round"/>
<path d="M27.1711 84.0867L38.8802 39.769L44.3232 39.7686L32.7765 84.0487L27.1711 84.0867Z" fill="#784421" stroke="#182219" stroke-width="3.05727" stroke-linecap="round" stroke-linejoin="round"/>
<path d="M23.3989 30.9801C31.4943 30.9801 38.0569 24.4176 38.0569 16.3222C38.0569 8.22684 31.4943 1.66431 23.3989 1.66431C15.3036 1.66431 8.74097 8.22684 8.74097 16.3222C8.74097 24.4176 15.3036 30.9801 23.3989 30.9801Z" fill="#518016" stroke="#182219" stroke-opacity="0.988235" stroke-width="3.32849" stroke-linecap="round" stroke-linejoin="round"/>
<path d="M16.3221 53.2587C24.4175 53.2587 30.9801 46.6961 30.9801 38.6008C30.9801 30.5054 24.4175 23.9429 16.3221 23.9429C8.22678 23.9429 1.66418 30.5054 1.66418 38.6008C1.66418 46.6961 8.22678 53.2587 16.3221 53.2587Z" fill="#66B218" stroke="#182219" stroke-opacity="0.984314" stroke-width="3.3283" stroke-linecap="round" stroke-linejoin="round"/>
<path d="M46.4637 51.968C57.4651 51.968 66.3835 43.0496 66.3835 32.0482C66.3835 21.0468 57.4651 12.1284 46.4637 12.1284C35.4623 12.1284 26.5439 21.0468 26.5439 32.0482C26.5439 43.0496 35.4623 51.968 46.4637 51.968Z" fill="#7EC334" stroke="#182219" stroke-opacity="0.988235" stroke-width="3.32849" stroke-linecap="round" stroke-linejoin="round"/>
<g clip-path="url(#clip1_1_56)">
<path d="M61.1522 54.686C59.6893 54.6859 58.2408 54.9905 56.8893 55.5825C55.5378 56.1744 54.3098 57.0421 53.2754 58.136C52.241 59.2298 51.4204 60.5284 50.8606 61.9577C50.3008 63.3869 50.0127 64.9187 50.0128 66.4656C50.0175 66.9155 50.0466 67.3648 50.1 67.8112C49.5353 67.7138 48.9602 67.6646 48.3836 67.6645C46.1301 67.6645 43.969 68.4125 42.3756 69.7438C40.7821 71.0752 39.887 72.8809 39.887 74.7638C39.887 76.6466 40.7821 78.4522 42.3756 79.7836C43.969 81.1149 46.1301 81.8629 48.3836 81.8629C50.145 81.8611 51.8621 81.402 53.2975 80.549C54.7329 79.696 55.8155 78.4914 56.3957 77.1018C57.8818 77.8497 59.5061 78.2401 61.1519 78.2448C64.106 78.2448 66.9391 77.0038 69.028 74.7948C71.1169 72.5858 72.2904 69.5898 72.2906 66.4658C72.2906 64.9189 72.0025 63.3871 71.4427 61.958C70.883 60.5288 70.0625 59.2302 69.0282 58.1364C67.9939 57.0425 66.766 56.1749 65.4145 55.5829C64.0631 54.9909 62.615 54.686 61.1522 54.686Z" fill="#518016" stroke="#182219" stroke-width="3.84844" stroke-linecap="round" stroke-linejoin="round"/>
<path d="M61.1522 54.686C59.6893 54.6859 58.2408 54.9905 56.8893 55.5825C55.5378 56.1744 54.3098 57.0421 53.2754 58.136C52.241 59.2298 51.4204 60.5284 50.8606 61.9577C50.3008 63.3869 50.0127 64.9187 50.0128 66.4656C50.0175 66.9155 50.0466 67.3648 50.1 67.8112C49.5353 67.7138 48.9602 67.6646 48.3836 67.6645C46.1301 67.6645 43.969 68.4125 42.3756 69.7438C40.7821 71.0752 39.887 72.8809 39.887 74.7638C39.887 76.6466 40.7821 78.4522 42.3756 79.7836C43.969 81.1149 46.1301 81.8629 48.3836 81.8629C50.145 81.8611 51.8621 81.402 53.2975 80.549C54.7329 79.696 55.8155 78.4914 56.3957 77.1018C57.8818 77.8497 59.5061 78.2401 61.1519 78.2448C64.106 78.2448 66.9391 77.0038 69.028 74.7948C71.1169 72.5858 72.2904 69.5898 72.2906 66.4658C72.2906 64.9189 72.0025 63.3871 71.4427 61.958C70.883 60.5288 70.0625 59.2302 69.0282 58.1364C67.9939 57.0425 66.766 56.1749 65.4145 55.5829C64.0631 54.9909 62.615 54.686 61.1522 54.686Z" fill="#518016" stroke="#182219" stroke-width="2" stroke-linecap="round" stroke-linejoin="round"/>
<path d="M70.5126 69.0728C69.3079 69.0739 68.1448 69.5028 67.2404 70.2795C66.336 71.0561 65.7522 72.1274 65.5979 73.2934C65.1707 72.4924 64.5351 71.8226 63.7587 71.3554C62.9824 70.8882 62.0943 70.641 61.1891 70.6401C60.5317 70.6401 59.8807 70.77 59.2733 71.0226C58.6659 71.2751 58.114 71.6452 57.6491 72.1118C57.1842 72.5784 56.8154 73.1324 56.5638 73.742C56.3123 74.3517 56.1828 75.0051 56.1828 75.665C56.1841 76.1517 56.2559 76.6357 56.3959 77.1017C56.1468 77.0366 55.8898 77.0032 55.6315 77.0024C54.8602 77.0029 54.1201 77.2934 53.5707 77.8113C53.0213 78.3291 52.7067 79.0328 52.6946 79.7706C52.1893 79.4111 51.5767 79.2164 50.947 79.2151C50.1675 79.215 49.4198 79.5111 48.8685 80.0384C48.3172 80.5657 48.0074 81.281 48.0073 82.0267C48.0073 82.396 48.0833 82.7617 48.231 83.1029C48.3788 83.4442 48.5953 83.7542 48.8683 84.0153C49.1413 84.2765 49.4653 84.4836 49.822 84.6249C50.1787 84.7662 50.561 84.8389 50.947 84.8389C51.4513 84.8382 51.947 84.7135 52.3863 84.4766C52.8256 84.2397 53.1938 83.8987 53.4555 83.4863C53.7263 83.9981 54.1668 84.4329 54.7241 84.7383C55.2814 85.0437 55.9316 85.2068 56.5962 85.2076C57.3412 85.2071 58.0658 85.003 58.6615 84.6259C59.2572 84.2489 59.6919 83.7191 59.9004 83.1162C60.4262 83.7079 61.1066 84.1881 61.8879 84.5191C62.6693 84.8501 63.5305 85.0227 64.4037 85.0236C65.3771 85.0225 66.3335 84.808 67.1804 84.4008C68.0273 83.9937 68.7358 83.4077 69.2374 82.6998C69.5319 83.1026 69.9275 83.4325 70.3897 83.6607C70.852 83.8888 71.367 84.0083 71.8901 84.009C72.3123 84.009 72.7304 83.9315 73.1205 83.7809C73.5106 83.6304 73.865 83.4097 74.1636 83.1315C74.4622 82.8532 74.699 82.523 74.8606 82.1594C75.0222 81.7959 75.1054 81.4062 75.1055 81.0127C75.1051 80.3792 74.8894 79.7621 74.4893 79.25C74.0891 78.738 73.5251 78.3572 72.8783 78.1626C73.6623 77.7474 74.3171 77.1336 74.7737 76.3858C75.2303 75.638 75.4718 74.7839 75.4727 73.9135C75.4727 72.6298 74.9501 71.3986 74.0199 70.4909C73.0897 69.5832 71.8281 69.0728 70.5126 69.0728Z" fill="#7EC335" stroke="#182219" stroke-width="2" stroke-linecap="round" stroke-linejoin="round"/>
<path d="M33.6781 67.8742C32.701 67.8741 31.7335 68.0433 30.8307 68.3723C29.928 68.7012 29.1077 69.1834 28.4167 69.7912C27.7258 70.3991 27.1777 71.1207 26.8037 71.9149C26.4298 72.7091 26.2373 73.5604 26.2372 74.4201C26.2402 75.9715 26.8694 77.4715 28.0126 78.6527C27.5746 79.1763 27.3408 79.788 27.3398 80.4133C27.3399 80.6301 27.368 80.8462 27.4237 81.0586H24.2978C22.8475 81.0586 21.6799 82.2305 21.6799 83.6862C21.6799 85.1419 22.8475 86.3138 24.2978 86.3138H75.7022C77.1525 86.3138 78.3201 85.1419 78.3201 83.6862C78.3201 82.2305 77.1525 81.0586 75.7022 81.0586H49.1929C49.1985 80.9817 49.2014 80.9046 49.2015 80.8274C49.2013 79.984 48.8723 79.1751 48.2866 78.5788C47.701 77.9824 46.9067 77.6473 46.0786 77.6473C45.9208 77.6477 45.7634 77.6603 45.6075 77.685C45.393 76.6976 44.8437 75.7921 44.0331 75.0896C43.2225 74.3871 42.1894 73.9214 41.0722 73.7546C40.8854 72.143 40.0261 70.6496 38.6603 69.5631C37.2946 68.4766 35.5194 67.8759 33.6781 67.8742Z" fill="#7EC335" stroke="#182219" stroke-width="2" stroke-linecap="round" stroke-linejoin="round"/>
</g>
</g>
<defs>
<clipPath id="clip0_1_56">
<rect width="88" height="88" fill="white"/>
</clipPath>
<clipPath id="clip1_1_56">
<rect width="60" height="35" fill="white" transform="translate(20 53)"/>
</clipPath>
</defs>
</svg>