<svg xmlns="http://www.w3.org/2000/svg" fill="none" viewBox="51.11 0.11 409.79 511.89">
<path d="M244.7 1.09999C242.2 2.49999 211 65.3 211 68.8C211 74.8 220.4 78.6 224.2 74.2C225.1 73.3 231.3 61.5 238 48L250.3 23.5L285.7 94.4C305.2 133.4 320.8 165.6 320.3 166C319.9 166.4 316.5 167.7 312.8 169C305.9 171.2 302 174.5 302 178.1C302 179.1 309.7 195.3 319.1 214.1C328.4 232.9 335.8 248.6 335.3 249C334.9 249.4 331.4 250.8 327.7 252C321.6 254 320.6 254.6 319.3 257.8L317.8 261.4L334.6 295.2C345.2 316.5 351.1 329.3 350.5 329.9C349.9 330.4 343.9 332.6 337 334.9C279.2 353.8 219.2 353.6 161.6 334.2C155.7 332.2 150.6 330.1 150.3 329.4C150.1 328.8 157.1 313.8 165.9 296.1C176.4 275.2 182 262.8 182 260.8C182 256.4 179.9 254.5 171.5 251.5L164.1 248.8L181.1 214.9C198.6 179.8 199.9 176.1 196.2 172.7C194.9 171.5 181.1 166.1 179.2 166C179.1 166 186.2 151.6 195 134C203.8 116.4 211 100.9 211 99.5C211 94.1 204 90.3 198.9 93C197.8 93.7 191.1 105.9 182.7 122.6L168.5 151L159 131.9C153.8 121.4 148.6 112.2 147.5 111.4C145.2 109.7 139.7 109.6 136.9 111C135.7 111.7 122.9 136.2 103.9 174.3C75.3 231.5 72.8 236.7 73.3 240.4C74 245.3 76.6 249 80.8 251C82.5 251.8 84 252.8 84 253.2C84 253.6 79 263.9 73 276C65.3 291.6 62 299.2 62 301.7C62 306.7 64.8 312 68.7 314.2C70.5 315.3 72 316.4 72 316.6C72 316.8 67.2 326.6 61.4 338.2C51.3 358.4 50.8 359.7 51.2 364.5C51.9 372.3 54.5 375.3 64 378.9C68.4 380.6 73.1 382 74.5 382C78 382 82 377.8 82 374.3C82 369.9 79.6 367.5 73.1 365.1L67 362.9L79.5 338C86.4 324.2 92 312.2 92 311.1C92 308.2 88.3 304.2 84.2 302.9C82.2 302.3 80.2 301.6 79.8 301.3C79.4 301.1 84.7 289.7 91.5 275.9C98.4 262.1 104 249.6 104 248.2C104 243.9 101.4 241.2 95.6 239.4L90.2 237.7L115.8 186.3C129.9 158.1 141.7 135 142 135C142.3 135 149.3 148.6 157.6 165.2L172.7 195.5L160.4 220.3C152.2 236.7 148 246.2 148 248.3C148.1 255.5 153.7 262.9 160.3 264.5L162.9 265.2L148.3 294.3C135.4 320.3 133.7 324.1 133.7 328.5C133.7 334.3 135.7 338.7 139.9 342.3C145.6 347.1 174.2 355.9 197 359.9C217.5 363.5 217.1 363.2 205.1 367C179.6 375 151 378.3 126.3 376C118.1 375.2 110 374.6 108.3 374.6C103.7 374.7 101 377.4 101 382.2C101 387 103.4 389.6 109 390.5L113.2 391.2L112.6 414.9C112.3 427.9 111.7 443.2 111.4 448.9C110.8 458.8 110.7 459.4 107.5 462.8C104.3 466.4 104.3 466.4 93.4 467C74 468.2 67 473.3 59.5 491.4C54.5 503.5 54.1 506.6 57 509.8L59.1 512H250.4C431.3 512 441.8 511.9 443.2 510.2C446.4 506.7 446.2 504.4 442 493.7C439.8 487.9 436.6 481.4 435 479.1C429.7 471.8 419.8 467 410.2 467C404.6 467 399.6 464.6 396.8 460.6C394.9 458.1 394.4 455.7 394 446.7C393.5 436.3 393.3 435.6 390.7 433.4C387.3 430.5 384.1 430.4 380.6 433.1C378.1 435.1 378 435.5 378 445.9C378 452.6 378.6 458.5 379.5 461.6C380.3 464.3 381 466.6 381 466.7C381 466.9 371.8 467 360.6 467H340.1L341.7 463.2C343 460.3 343.5 453.6 344.2 430C344.7 413.8 345.3 396.4 345.6 391.5L346.1 382.5H360.9H375.7L376.2 394.9C376.7 406.9 376.8 407.4 379.4 409.7C382.4 412.3 384.7 412.6 388.4 410.8C392 409.2 392.4 407.1 392.1 393.3L391.8 381.1L395.7 380.5C415.3 377.3 436.8 371.8 448.7 366.9C457.7 363.1 460.2 360 460.8 352.1C461.2 346.6 460.9 345.9 449.1 322.3L437.1 298.1L441 295.9C446.3 292.9 449.5 286.5 448.6 280.9C448.2 278.7 442.6 266.1 436 253C429.4 239.8 424 228.7 424 228.3C424 227.8 425.8 226.8 428 225.8C433.1 223.7 436 219 436 212.8C436 208.6 432.3 200.7 402.6 141.2C379.3 94.7 368.3 73.6 366.4 72.1C363.4 69.7 359.6 69.5 356.1 71.4C354.3 72.4 349.4 81.3 338.4 103.1L323.2 133.5L290.5 68C272.5 32 257 1.99999 256.1 1.29999C254.2 -0.200008 247.2 -0.300008 244.7 1.09999ZM390 153.1C406 185 418.8 211.5 418.6 211.9C418.3 212.4 416 213.3 413.5 214C411 214.7 407.8 216.2 406.5 217.2C401.9 220.8 402.9 223.8 418.1 254.1C425.8 269.6 432 282.3 431.8 282.5C431.6 282.6 429.2 283.5 426.4 284.4C423.5 285.3 420.5 286.9 419.5 288C416 291.8 417.3 295.5 431.4 323.8L445 351L442.3 352.1C408.7 364.9 365.8 369.9 331.5 365C318.4 363.1 307 360.8 307 360C307 359.6 309.1 358.9 311.8 358.5C318.5 357.5 345.2 349.7 353.4 346.3C362.6 342.6 366.2 338.2 366.8 330.2C367.2 324.6 367.1 324.2 352.6 295.1C344.5 279 338 265.7 338.2 265.6C348.6 261.1 352 256.8 352 248.3C352 243.6 350.6 240.2 337 213L322 183L324.6 182C326 181.4 327.5 181 328 181C329.8 181 335.3 175.4 336.6 172.3C338.7 167.5 338.3 164.2 335.1 157.5L332.3 151.5L346.4 123.2C354.1 107.7 360.6 95 360.7 95C360.9 95 374.1 121.1 390 153.1ZM238 365H241.9L242.2 381.4C242.5 395.9 242.7 398 244.4 399.9C247 402.7 253.2 402.8 256 400C257.8 398.2 258 396.7 258 381.6V365.2L263.6 364.8C266.7 364.7 269.3 364.7 269.5 365C269.6 365.3 270.1 379.9 270.5 397.5C271.5 445.5 272.3 456.6 274.8 462.2L276.9 467H267.4H258V444C258 422.3 257.9 420.9 256 419C252.7 415.7 247.5 416 244.3 419.6C242.1 422 242 422.7 242 444.6V467H233C228.1 467 224 466.8 224 466.6C224 466.4 225 464.1 226.2 461.4C228.5 456.2 228.6 455.3 230.5 387.7C231.1 367.4 231.4 364 232.7 364.4C233.5 364.7 235.9 365 238 365ZM299.1 375C305.4 376.6 314.7 378.6 319.9 379.4C325.1 380.3 329.4 381.1 329.5 381.2C330 381.7 328 449.2 327.4 453.8C326.8 458.7 322.7 464.1 318 466C313.1 468 301 466.9 296.8 464.1C289.9 459.3 288.7 456.3 287.9 441.6C286.5 414.9 285.8 372 286.7 372C287.3 372 292.8 373.3 299.1 375ZM214.6 385.7C214.3 388.4 213.8 403.8 213.5 420C213.1 436.2 212.4 451.2 211.9 453.2C210.7 457.9 206.8 462.6 201.9 465C196.9 467.6 183.2 467.8 179 465.4C172.9 461.8 172.8 460.7 171.7 424.8C171.2 406.7 171 391.7 171.2 391.5C171.5 391.2 175.9 390.3 181 389.4C186.1 388.5 195.6 386.3 201.9 384.5C208.3 382.7 213.9 381.2 214.3 381.1C214.8 381.1 214.9 383.1 214.6 385.7ZM155.4 419C156 445.4 157.1 461.9 158.5 465.3C159.2 466.9 158 467 142 467C126 467 124.8 466.9 125.5 465.2C126.6 462.8 127.9 441.5 128.6 415L129.2 392.5H142H154.8L155.4 419ZM418.9 485.9C420.7 487.2 423.1 490.1 424.1 492.4L425.9 496.5L250.8 496.8C154.5 496.9 75.5 496.8 75.3 496.6C74.6 495.9 77.2 490.5 79.3 488.1C84.2 482.8 75.1 483.1 251.5 483.3L415.5 483.5L418.9 485.9Z" fill="#FFF"/>
<path d="M385 293.7C370.2 295.7 370.2 295.7 368.5 299.1C367.2 301.5 367.1 302.8 368 305.4C369.9 311.1 372.1 311.6 388.3 309.6C402.6 307.9 406 306.7 408 302.9C409.5 300.2 408.3 295.3 405.7 293.5C403.2 291.7 399.3 291.8 385 293.7Z" fill="#FFF"/>
<path d="M211.3 177.1C210.1 177.7 208.6 179.6 207.9 181.2C206.9 183.6 207 184.7 208.3 187.5C209.3 189.5 210.9 191.2 212.2 191.5C218.5 192.9 228.7 194.1 240 194.6C251.9 195.2 252.6 195.1 255.3 193C257.4 191.3 258 190 258 187C258 181.4 254.6 179 246.6 179C241.2 179 234.9 178.4 218.5 176.6C215.6 176.3 212.6 176.5 211.3 177.1Z" fill="#FFF"/>
<path d="M289.5 261.5C280.2 263.2 262.2 265 254.3 265C246.7 265 244.7 265.9 243 270C241.5 273.5 243 278.4 246.1 280C249.8 282 275.9 280.4 294.9 277C303.8 275.4 305.9 274.7 307.8 272.5C310.6 269.2 310.6 266 307.9 262.6C305.5 259.6 301.5 259.4 289.5 261.5Z" fill="#FFF"/>
<path d="M103.1 311.9C100.3 314.7 100.2 321 103 323.5C104.1 324.5 107.9 325.7 112.3 326.3C118.8 327.2 120.1 327.2 122.4 325.7C127 322.7 127.1 315.4 122.7 312.5C121.4 311.7 117 310.7 112.8 310.4C106 309.8 105.1 309.9 103.1 311.9Z" fill="#FFF"/>
</svg>